<svg xmlns="http://www.w3.org/2000/svg" width="41.432" height="40.551" viewBox="0 0 41.432 40.551">
  <g id="Groupe_51" data-name="Groupe 51" transform="translate(-103 -359.449)">
    <path id="Icon_awesome-file-alt" data-name="Icon awesome-file-alt" d="M13.884,8.43V0H1.488A1.484,1.484,0,0,0,0,1.488v28.76a1.484,1.484,0,0,0,1.488,1.488H22.314A1.484,1.484,0,0,0,23.8,30.248V9.917h-8.43A1.492,1.492,0,0,1,13.884,8.43Zm3.967,14.628a.746.746,0,0,1-.744.744H6.694a.746.746,0,0,1-.744-.744v-.5a.746.746,0,0,1,.744-.744H17.107a.746.746,0,0,1,.744.744Zm0-3.967a.746.746,0,0,1-.744.744H6.694a.746.746,0,0,1-.744-.744v-.5a.746.746,0,0,1,.744-.744H17.107a.746.746,0,0,1,.744.744Zm0-4.463v.5a.746.746,0,0,1-.744.744H6.694a.746.746,0,0,1-.744-.744v-.5a.746.746,0,0,1,.744-.744H17.107A.746.746,0,0,1,17.851,14.628ZM23.8,7.556v.378H15.868V0h.378A1.486,1.486,0,0,1,17.3.434l6.068,6.074A1.483,1.483,0,0,1,23.8,7.556Z" transform="translate(103 359.449)" fill="#1d1d1d"/>
    <path id="Icon_awesome-file-alt-2" data-name="Icon awesome-file-alt" d="M13.884,8.43V0H1.488A1.484,1.484,0,0,0,0,1.488v28.76a1.484,1.484,0,0,0,1.488,1.488H22.314A1.484,1.484,0,0,0,23.8,30.248V9.917h-8.43A1.492,1.492,0,0,1,13.884,8.43Zm3.967,14.628a.746.746,0,0,1-.744.744H6.694a.746.746,0,0,1-.744-.744v-.5a.746.746,0,0,1,.744-.744H17.107a.746.746,0,0,1,.744.744Zm0-3.967a.746.746,0,0,1-.744.744H6.694a.746.746,0,0,1-.744-.744v-.5a.746.746,0,0,1,.744-.744H17.107a.746.746,0,0,1,.744.744Zm0-4.463v.5a.746.746,0,0,1-.744.744H6.694a.746.746,0,0,1-.744-.744v-.5a.746.746,0,0,1,.744-.744H17.107A.746.746,0,0,1,17.851,14.628ZM23.8,7.556v.378H15.868V0h.378A1.486,1.486,0,0,1,17.3.434l6.068,6.074A1.483,1.483,0,0,1,23.8,7.556Z" transform="translate(120.631 368.265)" fill="#1d1d1d"/>
  </g>
</svg>
