<svg xmlns="http://www.w3.org/2000/svg" width="27.2" height="24.006" viewBox="0 0 27.2 24.006">
  <path id="facebook" d="M24.286,2.25H2.914A2.759,2.759,0,0,0,0,4.822V23.684a2.759,2.759,0,0,0,2.914,2.572h8.333V18.094H7.422V14.253h3.825V11.325c0-3.33,2.246-5.17,5.687-5.17a26.169,26.169,0,0,1,3.371.259V9.683h-1.9c-1.871,0-2.454,1.025-2.454,2.075v2.494h4.176l-.668,3.841H15.953v8.161h8.333A2.759,2.759,0,0,0,27.2,23.684V4.822A2.759,2.759,0,0,0,24.286,2.25Z" transform="translate(0 -2.25)" fill="#fff"/>
</svg>
