<svg xmlns="http://www.w3.org/2000/svg" width="37.204" height="28.931" viewBox="0 0 37.204 28.931">
  <path id="Icon_awesome-home" data-name="Icon awesome-home" d="M18.108,9.759,6.2,19.566V30.151a1.033,1.033,0,0,0,1.033,1.033l7.237-.019A1.033,1.033,0,0,0,15.5,30.133V23.951a1.033,1.033,0,0,1,1.033-1.033h4.133A1.033,1.033,0,0,1,21.7,23.951v6.177a1.033,1.033,0,0,0,1.033,1.037l7.235.02A1.033,1.033,0,0,0,31,30.151V19.559L19.1,9.759A.787.787,0,0,0,18.108,9.759Zm18.809,6.666-5.4-4.451V3.029a.775.775,0,0,0-.775-.775H27.126a.775.775,0,0,0-.775.775v4.69L20.569,2.961a3.1,3.1,0,0,0-3.94,0L.28,16.425a.775.775,0,0,0-.1,1.092l1.647,2a.775.775,0,0,0,1.092.105L18.108,7.111a.787.787,0,0,1,.988,0L34.289,19.624a.775.775,0,0,0,1.091-.1l1.647-2a.775.775,0,0,0-.11-1.093Z" transform="translate(0.001 -2.254)" fill="#43757d"/>
</svg>
