<svg xmlns="http://www.w3.org/2000/svg" width="41.432" height="31.074" viewBox="0 0 41.432 31.074">
  <path id="Icon_metro-profile" data-name="Icon metro-profile" d="M42.971,12.151h-2.9V7.8l-5.981-.092.031,4.439H16.152l.123-4.439L10.418,7.8v4.439l-2.959-.092A2.961,2.961,0,0,0,4.5,15.111V35.827a2.961,2.961,0,0,0,2.959,2.959H42.971a2.961,2.961,0,0,0,2.959-2.959V15.111A2.961,2.961,0,0,0,42.971,12.151Zm-7.4-2.959h2.959v5.919H35.573ZM16.336,19.272c1.788,0,3.238,1.9,3.238,4.254s-1.45,4.254-3.238,4.254-3.238-1.9-3.238-4.254,1.45-4.254,3.238-4.254ZM11.9,9.192h2.959v5.919H11.9ZM9.925,32.79s.351-2.814,1.148-3.346a11.349,11.349,0,0,1,3.093-.885s1.489,1.591,2.122,1.591,2.12-1.591,2.12-1.591a11.314,11.314,0,0,1,3.094.885c.937.624,1.17,3.346,1.17,3.346H9.925Zm30.087-1.4H26.695v-1.48H40.012Zm0-2.959H26.695v-1.48H40.012Zm0-2.959H26.695v-1.48H40.012Zm0-2.959H26.695V21.03H40.012Z" transform="translate(-4.499 -7.712)" fill="#1d1d1d"/>
</svg>
