<svg xmlns="http://www.w3.org/2000/svg" width="41.43" height="29.001" viewBox="0 0 41.43 29.001">
  <path id="Icon_awesome-user-friends" data-name="Icon awesome-user-friends" d="M12.429,16.75A7.25,7.25,0,1,0,5.179,9.5,7.247,7.247,0,0,0,12.429,16.75ZM17.4,18.822h-.537a10.01,10.01,0,0,1-8.869,0H7.457A7.459,7.459,0,0,0,0,26.279v1.864a3.108,3.108,0,0,0,3.107,3.107H21.751a3.108,3.108,0,0,0,3.107-3.107V26.279A7.459,7.459,0,0,0,17.4,18.822ZM31.073,16.75a6.214,6.214,0,1,0-6.214-6.214A6.216,6.216,0,0,0,31.073,16.75Zm3.107,2.072h-.246a8.163,8.163,0,0,1-5.723,0h-.246a7.19,7.19,0,0,0-3.606,1,9.474,9.474,0,0,1,2.57,6.46v2.486c0,.142-.032.278-.039.414H38.323a3.108,3.108,0,0,0,3.107-3.107,7.247,7.247,0,0,0-7.25-7.25Z" transform="translate(0 -2.25)" fill="#1d1d1d"/>
</svg>
